<?xml version="1.0" standalone="no"?>
<!DOCTYPE svg PUBLIC "-//W3C//DTD SVG 20010904//EN"
 "http://www.w3.org/TR/2001/REC-SVG-20010904/DTD/svg10.dtd">
<svg version="1.0" xmlns="http://www.w3.org/2000/svg"
 width="1024.000000pt" height="1024.000000pt" viewBox="0 0 1024.000000 1024.000000"
 preserveAspectRatio="xMidYMid meet">
<metadata>
Created by potrace 1.16, written by Peter Selinger 2001-2019
</metadata>
<g transform="translate(0.000000,1024.000000) scale(0.100000,-0.100000)"
fill="#000000" stroke="none">
<path d="M6830 6041 c-210 -68 -443 -293 -578 -559 -86 -169 -122 -311 -122
-481 0 -219 62 -352 199 -422 61 -31 215 -39 292 -14 131 43 236 113 357 239
51 53 81 78 76 64 -14 -44 -6 -156 15 -203 26 -59 69 -85 142 -85 91 0 166 47
276 174 l43 48 -1 -58 c-2 -152 107 -209 230 -121 75 54 89 67 144 137 l51 64
17 -67 c21 -82 38 -109 91 -145 37 -24 51 -27 123 -27 73 0 88 4 150 35 44 22
99 62 148 109 76 73 77 73 71 40 -4 -19 -11 -42 -15 -51 -29 -56 9 -121 68
-116 43 4 45 7 78 128 46 169 73 210 257 397 86 87 169 146 184 130 12 -12
-14 -81 -51 -132 -21 -31 -77 -81 -143 -130 -101 -75 -107 -82 -110 -118 -7
-86 70 -213 144 -237 51 -17 141 -8 197 19 26 12 81 54 122 93 107 100 165
187 144 219 -7 11 -25 -2 -81 -60 -127 -131 -249 -188 -320 -150 -26 14 -78
70 -78 84 1 35 19 58 75 94 72 47 176 153 205 211 42 83 32 182 -23 211 -59
32 -166 -27 -311 -172 -94 -94 -121 -114 -97 -72 6 10 20 43 32 73 18 47 41
74 163 192 156 149 221 234 291 380 71 145 71 239 2 274 -57 30 -145 -6 -228
-93 -143 -150 -248 -375 -424 -898 -30 -89 -54 -127 -129 -199 -99 -96 -246
-168 -310 -152 -102 25 -129 168 -61 322 55 125 188 274 244 274 52 0 64 -23
58 -110 -3 -41 -9 -85 -13 -97 -9 -31 20 -41 47 -17 77 69 81 214 9 279 -18
16 -36 20 -94 20 -60 0 -78 -5 -120 -29 -102 -61 -187 -164 -266 -325 -63
-127 -211 -292 -288 -322 -31 -12 -40 -5 -48 37 -11 60 30 191 127 406 27 59
49 119 49 132 0 49 -64 83 -102 54 -9 -7 -49 -82 -88 -167 -89 -190 -100 -210
-169 -294 -83 -103 -169 -167 -226 -167 -18 0 -31 9 -45 33 -34 55 -25 135 40
337 22 69 45 134 49 145 5 11 24 67 42 125 75 239 193 453 293 532 67 53 82
48 79 -26 -6 -172 -159 -428 -346 -580 -34 -28 -47 -45 -45 -60 2 -17 9 -21
38 -18 44 3 91 36 176 121 166 165 289 384 301 538 9 116 -28 173 -114 173
-84 0 -185 -73 -285 -206 -109 -144 -184 -305 -309 -659 -17 -49 -43 -106 -57
-125 -124 -170 -290 -296 -433 -329 -66 -16 -146 -13 -182 5 -82 41 -129 112
-148 219 -60 344 206 856 529 1019 103 52 180 41 230 -34 48 -70 13 -221 -78
-341 -55 -72 -62 -99 -27 -99 52 0 150 102 200 208 34 74 46 172 28 240 -14
51 -61 106 -112 133 -50 25 -172 25 -249 0z m255 -17 c139 -72 135 -306 -9
-469 -44 -51 -109 -95 -122 -82 -4 3 12 30 34 59 69 89 106 181 110 268 3 86
-14 125 -70 161 -113 70 -349 -72 -522 -314 -61 -86 -149 -270 -181 -382 -19
-64 -28 -124 -32 -206 -8 -166 17 -258 89 -325 66 -63 127 -80 220 -64 126 23
238 86 356 202 123 122 148 161 212 348 118 344 246 576 386 699 75 66 184 99
225 68 27 -21 49 -74 49 -120 0 -127 -115 -356 -258 -515 -80 -89 -184 -167
-208 -158 -9 4 -12 2 -8 -5 4 -7 1 -10 -6 -7 -23 7 -22 26 1 45 66 52 183 173
219 227 117 173 195 414 147 454 -28 23 -115 -43 -188 -144 -72 -98 -129 -223
-210 -461 -116 -341 -130 -391 -136 -483 -5 -77 -3 -88 17 -112 78 -99 277 66
416 344 36 71 74 153 85 181 35 88 68 108 110 66 26 -26 21 -52 -31 -163 -120
-258 -158 -407 -114 -451 34 -34 88 0 215 132 60 63 87 102 133 193 67 133
128 215 200 272 66 53 121 78 173 78 91 0 128 -42 128 -146 0 -62 -3 -75 -28
-107 -40 -53 -49 -47 -40 26 12 97 7 129 -20 153 -18 15 -34 20 -56 16 -72
-10 -217 -187 -262 -319 -29 -85 -31 -182 -5 -235 59 -122 258 -71 429 109 75
78 92 112 157 307 108 321 201 531 297 670 129 187 287 256 333 146 44 -106
-122 -402 -330 -590 -52 -47 -106 -96 -120 -110 -23 -22 -74 -128 -95 -200 -7
-22 -6 -23 9 -11 9 7 16 11 16 8 0 -3 43 39 96 93 149 154 266 219 314 175 56
-51 41 -151 -39 -256 -49 -64 -77 -90 -161 -142 -56 -36 -70 -53 -70 -89 0
-42 53 -104 99 -115 80 -21 181 27 297 140 34 32 67 58 73 56 24 -8 -87 -146
-164 -206 -169 -132 -298 -123 -379 27 -37 68 -42 144 -11 165 101 68 196 144
222 178 38 51 73 136 64 159 -5 14 -10 15 -43 3 -48 -16 -117 -74 -230 -195
-119 -126 -153 -184 -193 -324 -17 -62 -35 -118 -39 -124 -9 -15 -41 -15 -68
-1 -19 10 -20 17 -14 74 3 35 11 77 17 95 6 17 9 34 6 37 -3 3 -35 -24 -72
-61 -174 -174 -332 -219 -453 -129 -17 13 -38 36 -46 51 -13 26 -18 44 -31
125 -6 38 -7 39 -26 21 -12 -10 -37 -41 -57 -68 -47 -64 -152 -150 -203 -165
-30 -9 -49 -9 -74 -1 -51 17 -69 52 -75 149 l-5 84 -61 -75 c-205 -250 -432
-215 -411 63 4 43 3 80 -2 83 -4 3 -34 -26 -67 -65 -153 -181 -364 -290 -533
-276 -231 19 -343 206 -312 523 14 137 47 251 110 379 140 284 391 520 610
575 61 15 171 7 216 -16z"/>
<path d="M9136 5898 c-67 -70 -132 -190 -201 -368 -60 -159 -59 -154 -46 -145
5 3 15 22 22 43 32 99 85 226 132 312 60 109 144 207 170 197 35 -13 16 -116
-39 -212 -74 -129 -121 -190 -223 -289 -45 -43 -80 -83 -79 -88 6 -16 199 192
250 267 26 39 63 104 83 146 30 64 36 86 33 130 -3 48 -6 54 -27 57 -17 3 -36
-10 -75 -50z"/>
<path d="M2196 6001 c-17 -11 -34 -18 -38 -15 -5 3 -8 2 -7 -3 1 -4 -36 -47
-83 -94 -99 -100 -248 -277 -376 -447 -50 -65 -97 -125 -105 -134 -10 -10 -46
-17 -112 -22 -166 -11 -247 -36 -333 -102 -72 -55 -102 -105 -100 -170 1 -30
6 -54 10 -54 5 0 6 5 3 10 -3 6 1 10 9 10 9 0 45 29 81 65 71 70 109 94 194
119 61 18 95 21 86 7 -3 -5 9 -3 25 6 17 8 34 13 37 10 7 -8 -118 -175 -215
-289 -81 -96 -213 -205 -233 -192 -7 4 -10 3 -6 -3 10 -16 -51 -37 -99 -35
-49 2 -85 14 -107 37 -24 23 -40 9 -33 -29 4 -17 8 -39 9 -48 1 -9 3 -15 6
-13 2 3 16 -4 30 -13 106 -72 201 -54 353 66 42 33 79 58 83 54 4 -4 5 -2 3 3
-2 6 29 48 68 95 38 47 101 126 138 175 37 50 72 89 77 88 4 -2 6 3 3 10 -3 8
12 33 34 57 37 42 39 43 112 47 41 2 81 1 89 -3 9 -4 33 -6 53 -5 21 2 42 0
46 -3 5 -3 -2 -50 -15 -103 -33 -133 -42 -301 -19 -370 29 -87 114 -143 194
-128 85 16 185 95 269 213 25 34 49 62 54 62 5 0 8 3 7 8 -1 4 15 36 36 72 21
36 59 102 83 148 25 45 47 82 50 82 15 0 64 -37 69 -52 5 -18 -21 -124 -36
-143 -21 -27 -60 -186 -60 -244 0 -58 3 -66 34 -97 45 -45 90 -48 161 -11 22
12 43 20 47 19 5 -1 7 1 6 6 -2 4 18 30 44 57 25 28 56 61 68 75 18 21 20 22
15 5 -31 -89 -32 -149 -3 -169 56 -39 90 -15 127 90 49 138 134 290 154 277 6
-3 7 -1 3 6 -16 26 167 231 230 257 44 19 44 19 44 -18 0 -38 -40 -152 -100
-287 -51 -116 -90 -234 -90 -272 0 -58 76 -92 113 -51 10 10 28 51 41 90 14
39 44 108 67 153 67 128 217 329 246 329 8 0 12 4 9 9 -8 12 66 61 92 61 15 0
22 -6 22 -18 0 -33 -31 -124 -84 -246 -51 -117 -73 -188 -78 -251 -3 -43 36
-123 66 -136 14 -7 23 -15 21 -20 -3 -4 0 -11 6 -15 7 -4 9 -3 6 4 -5 6 8 10
37 10 58 -1 117 34 191 114 33 35 63 62 68 60 5 -1 6 1 3 6 -3 5 1 18 8 28 13
17 15 16 21 -18 4 -20 4 -42 -1 -49 -4 -7 -3 -10 3 -6 6 4 13 -3 17 -16 3 -13
20 -40 39 -61 27 -32 43 -41 92 -51 33 -6 62 -9 65 -6 3 3 22 14 43 24 60 27
122 85 185 169 56 76 57 77 117 88 75 15 145 27 145 26 0 -1 -14 -44 -30 -96
-38 -120 -39 -164 -5 -186 17 -11 35 -14 59 -10 31 6 36 12 52 59 60 182 165
356 297 493 110 115 166 133 153 49 -6 -42 -45 -142 -61 -159 -8 -7 -12 -16
-10 -18 2 -2 -14 -51 -36 -107 -32 -82 -41 -118 -42 -170 -1 -76 6 -126 19
-126 5 0 20 -8 34 -17 82 -53 191 -9 296 120 l44 54 0 -47 c0 -55 24 -111 54
-127 23 -13 127 -28 121 -17 -3 3 7 11 21 18 48 21 94 63 156 140 34 42 64 75
68 74 3 -1 7 8 7 20 1 12 8 26 15 32 22 16 19 50 -5 65 -19 11 -20 11 -10 -1
9 -12 -4 -30 -71 -101 -91 -95 -147 -138 -181 -138 -54 0 -37 96 69 377 42
111 76 215 76 231 0 33 -13 47 -53 57 -40 10 -59 -11 -107 -123 -23 -54 -45
-106 -50 -117 -5 -11 -23 -56 -40 -99 -33 -89 -76 -160 -90 -151 -5 3 -7 -1
-4 -9 4 -10 -23 -44 -80 -101 -72 -72 -90 -86 -113 -83 -28 3 -28 4 -27 68 1
54 10 84 51 180 88 204 107 313 66 378 -7 12 -11 28 -7 35 4 7 4 9 -1 5 -4 -4
-21 0 -38 8 -33 18 -100 13 -126 -9 -11 -9 -15 -9 -18 1 -3 6 -9 12 -15 12 -7
0 -7 -4 0 -13 8 -10 3 -20 -23 -40 -19 -15 -71 -72 -116 -127 -80 -98 -99
-118 -79 -82 5 9 25 57 45 106 53 135 47 166 -32 166 l-44 0 -28 -62 c-15 -35
-49 -121 -76 -191 -47 -125 -77 -169 -104 -153 -5 3 -11 2 -13 -4 -2 -6 -21
-12 -43 -14 -22 -2 -52 -7 -67 -11 -34 -9 -34 -6 -4 53 36 72 60 179 52 232
-13 89 -62 139 -147 150 -62 8 -115 -11 -195 -73 -103 -78 -167 -155 -224
-271 -98 -201 -255 -373 -308 -339 -29 19 -18 90 33 215 98 239 118 335 81
405 -18 36 -61 63 -101 63 -71 0 -161 -72 -277 -220 l-27 -35 13 52 c41 156
-64 253 -187 173 -53 -36 -150 -137 -214 -224 -55 -74 -60 -80 -40 -41 34 67
88 228 85 253 -4 31 -41 49 -82 38 -22 -5 -34 -20 -57 -74 -17 -37 -34 -76
-39 -87 -5 -11 -23 -58 -40 -105 -17 -47 -45 -109 -61 -138 -39 -66 -138 -184
-150 -176 -5 3 -8 0 -7 -7 4 -16 -81 -81 -101 -77 -31 6 -23 63 28 214 62 182
68 218 47 267 -12 31 -26 43 -73 64 -70 32 -87 48 -78 71 17 44 24 113 14 140
-16 46 -71 64 -124 40 -75 -34 -99 -194 -38 -256 20 -21 16 -47 -21 -120 -91
-181 -210 -345 -285 -393 -50 -32 -110 -38 -135 -14 -39 40 -30 218 21 382 8
29 19 50 24 47 5 -3 6 1 3 9 -4 11 7 16 43 22 47 7 103 32 103 47 0 14 -39 28
-79 28 -23 0 -41 2 -41 3 0 9 96 274 165 457 80 211 90 257 59 291 -23 25 -90
25 -128 0z m-46 -177 c-8 -8 -14 -23 -15 -33 -3 -34 -39 -120 -48 -114 -6 3
-7 1 -3 -5 4 -6 -17 -71 -47 -144 -30 -73 -64 -161 -77 -195 -12 -35 -26 -61
-30 -58 -5 3 -10 1 -12 -5 -2 -7 -41 -8 -111 -4 -74 5 -107 11 -104 18 10 24
256 343 310 401 11 11 30 35 44 52 14 18 29 30 34 27 5 -3 8 -2 7 3 -3 10 55
84 61 77 2 -2 -2 -11 -9 -20z m2432 -554 c6 0 7 -7 4 -16 -3 -8 -2 -13 3 -10
29 18 27 -117 -2 -209 -19 -57 -27 -71 -46 -73 -48 -7 -101 71 -101 151 0 49
38 133 58 129 8 -1 11 2 7 8 -7 12 34 31 53 24 8 -2 18 -4 24 -4z m-254 -221
c-2 -21 -1 -39 2 -39 3 0 11 -14 19 -31 18 -42 58 -76 111 -96 25 -9 47 -18
48 -19 8 -6 -61 -95 -98 -127 -51 -44 -70 -49 -109 -30 -61 30 -65 156 -10
317 33 97 45 105 37 25z"/>
<path d="M5939 5651 c-51 -28 -91 -83 -95 -132 -1 -22 0 -38 3 -35 4 3 12 1
19 -5 21 -17 73 -13 102 8 15 11 37 41 50 66 21 40 22 48 10 73 -18 38 -49 47
-89 25z"/>
<path d="M7846 5597 c-62 -66 -72 -160 -19 -173 57 -15 140 61 150 137 7 50
-11 69 -65 69 -26 0 -42 -8 -66 -33z m114 8 c29 -34 -23 -133 -86 -163 -33
-15 -35 -15 -56 6 -20 19 -21 24 -9 64 25 82 114 137 151 93z"/>
</g>
</svg>
